<?xml version="1.0" encoding="UTF-8"?>
<svg id="Ebene_1" data-name="Ebene 1" xmlns="http://www.w3.org/2000/svg" xmlns:xlink="http://www.w3.org/1999/xlink" viewBox="0 0 473.6098 79.3701">
  <defs>
    <style>
      .cls-1 {
        fill: #4e4e4e;
      }

      .cls-2 {
        clip-path: url(#clippath);
      }

      .cls-3 {
        fill: none;
      }

      .cls-4 {
        fill: #b90f22;
      }
    </style>
    <clipPath id="clippath">
      <rect class="cls-3" x="-12.7935" y="-12.4157" width="322.4356" height="104.2016"/>
    </clipPath>
  </defs>
  <g class="cls-2">
    <path class="cls-4" d="m252.5638,65.885c0,1.7492,1.082,3.0116,2.5789,3.0116,1.5148,0,2.5427-1.2082,2.5427-2.9575,0-1.8214-.9918-3.0476-2.4707-3.0476-1.623,0-2.6509,1.1722-2.6509,2.9935m-10.3045,1.6951c0,.8656.6499,1.4968,1.5516,1.4968.7574,0,1.3886-.2885,2.3984-1.1v-1.3164c-.9918-.4869-1.5696-.6492-2.2181-.6492-1.0459,0-1.7319.6312-1.7319,1.5689m-31.1734-2.3984h4.833c-.1623-1.4607-1.064-2.2902-2.4525-2.2902-1.3166,0-2.1099.7754-2.3805,2.2902m-46.8655.7935c0,1.7673.9745,2.9394,2.4344,2.9394,1.5509,0,2.5247-1.1361,2.5247-2.9394,0-1.8935-.9377-3.0837-2.4345-3.0837-1.5862,0-2.5247,1.1541-2.5247,3.0837m-14.5896-6.528h-.9925v4.7427c.8663.018,1.0279.018,1.2082.018,1.1902,0,1.7673-.0902,2.2902-.3787.6131-.3426,1.0279-1.1361,1.0279-2.0017,0-.8295-.3426-1.5689-.9377-1.9476-.4862-.3246-1.1-.4328-2.5961-.4328m34.035,3.4443c-1.3164,0-2.1099.7754-2.3804,2.2902h4.8329c-.1623-1.4607-1.064-2.2902-2.4525-2.2902m35.4678-37.6208c0-4.2649-2.7383-6.3976-7.5343-6.3976h-7.1453v12.9603h7.1453c4.796,0,7.5343-2.1779,7.5343-6.5627m62.4485,7.6066l-9.9585,17.1011h-9.7345l9.4702-16.2542-18.5063-22.2634h10.9227l17.8064,21.4165Zm-32.0478-21.4145l18.8953,22.6976-9.2309,15.8158h-9.7145l8.6977-14.944-19.573-23.5694h10.9254Zm-14.5577-.0021l19.9842,24.03-8.4561,14.4876h-9.7345l7.9679-13.6408-20.7112-24.8768h10.9496Zm-22.914.2691c9.6866,0,15.2575,4.8211,15.2575,13.2745,0,8.9147-5.5709,14.0243-15.2846,14.0243h-7.5816v10.9476h-8.6234V11.7299h16.232Zm-21.642,52.0994c0,.6672.4508.9377,2.2181,1.3164,1.2804.2705,1.8033.4508,2.2902.7935.559.3787.9017,1.0459.9017,1.7673,0,1.4968-1.3164,2.5968-3.1197,2.5968-.9559,0-1.4248-.1803-2.5427-.9558l.018.8476h-1.2264c.018-.5771.018-.8295.018-1.4787,0-.6853,0-1.0099-.018-1.605h1.2444c-.018.1082-.018.2705-.018.3246,0,.8836,1.0819,1.641,2.3443,1.641,1.064,0,1.8394-.523,1.8394-1.2443,0-.3967-.1984-.6853-.6672-.8836q-.3967-.1803-2.146-.6131c-1.7673-.4508-2.5789-1.1902-2.5789-2.3804,0-1.3886,1.2444-2.4525,2.8312-2.4525.8116,0,1.533.2705,2.3264.8656l.0541-.7033h1.2263l-.018.4328c-.018.523-.018.8656-.018.9918,0,.1082,0,.4689.018.9918,0,.0721,0,.2525.018.4689h-1.2623l-.018-.2705c0-.4508-.0723-.5951-.4869-.9377-.4328-.3787-1.064-.5951-1.6951-.5951-.9017,0-1.5328.4508-1.5328,1.082m.5667-43.4767h-8.6227v-8.6227h8.6227v8.6227Zm-8.6227,6.6126h8.6227v22.9861h-8.6227v-22.9861Zm1.4274,34.5378c1.4246,0,2.687.7754,3.3542,2.0558.3966.7754.559,1.5689.559,2.7411h-6.4559c.0541.7935.2525,1.3525.6852,1.8574.4329.5049,1.2985.8836,2.0018.8836.5049,0,1.2984-.2885,1.7492-.6312.2705-.2164.4689-.4148.8115-.9017l1.2984.5049c-.9558,1.4607-2.3804,2.2902-3.9312,2.2902-2.3984,0-4.1296-1.8033-4.1296-4.328,0-2.5427,1.7492-4.4722,4.0575-4.4722m-31.5117-30.8056c0,6.6591,5.0826,11.7944,11.6252,11.7944,3.4381,0,7.2175-1.7444,9.9308-4.482l5.0874,5.523c-4.0456,4.1435-9.8836,6.8318-15.4544,6.8318-11.4109,0-20.0335-8.4534-20.0335-19.548-.0222-11.044,8.7697-19.3538,20.3505-19.3538,5.5209,0,11.3082,2.447,15.0654,6.3456l-5.0153,6.1292c-2.6162-3.0296-6.3956-4.9904-9.9308-4.9904-6.5648,0-11.6252,5.0881-11.6252,11.75m-6.8159,27.3973c1.2263.0361,1.2623.0361,1.4968.0361h1.4253c3.1191,0,3.2633,0,4.0388.2344,1.5876.4689,2.4886,1.7132,2.4886,3.4443,0,1.3525-.5951,2.4706-1.623,3.0837-.7574.4508-1.46.5951-2.9755.5951-.0721,0-1.1541,0-1.6771-.018v3.4083l1.5689-.0361v1.3525c-1.082-.0361-1.2082-.0361-1.5689-.0361h-1.6771c-.2705,0-.3607,0-1.4968.0361v-1.3525l1.4968.0361v-9.4674l-1.4968.0361v-1.3525Zm10.4343,3.5165c.9197.018,1.0099.018,1.2804.018h.4869c.2344,0,.3066,0,.9918-.018l-.018,1.6951c.541-1.1722,1.7312-1.8394,3.246-1.8214v1.5509c-1.064,0-1.7312.2344-2.2541.7754-.5771.6312-.9197,1.7132-.9197,2.9935v2.164l1.7853-.0361v1.2443c-.9017-.018-1.0099-.018-1.2804-.018h-2.0378c-.2705,0-.3426,0-1.2804.018v-1.2443l1.3164.0361v-6.1493l-1.3164.0361v-1.2443Zm6.7347,4.346c0-2.6509,1.6591-4.4542,4.0935-4.4542,2.3624,0,4.0401,1.8394,4.0401,4.4181,0,2.5968-1.6598,4.3821-4.0762,4.3821-2.3984,0-4.0575-1.7673-4.0575-4.346m9.0007,3.0656l5.1214-6.2034h-3.5345v1.8033h-1.1902l.018-2.146c0-.2525,0-.4689-.018-.8656.8476.018.9918.018,1.4427.018h3.6067c.4327,0,.541,0,1.5328-.018v1.2443l-5.1394,6.1133h3.9313l-.018-1.7673h1.2262c-.0361.8295-.0361,1.0459-.0361,1.4968,0,.4689,0,.6131.0361,1.4787-.9377-.018-1.0639-.018-1.4967-.018h-4.0034c-.2164,0-.3066,0-1.4787.018v-1.1541Zm25.5039-.3066c0-.6853,0-1.0099-.018-1.605h1.2443c-.018.1082-.018.2705-.018.3246,0,.8836,1.082,1.641,2.3443,1.641,1.064,0,1.8393-.523,1.8393-1.2443,0-.3967-.1982-.6853-.6671-.8836q-.3967-.1803-2.1461-.6131c-1.7671-.4508-2.5786-1.1902-2.5786-2.3804,0-1.3886,1.2443-2.4525,2.8312-2.4525.8114,0,1.5328.2705,2.3263.8656l.0541-.7033h1.2263l-.018.4328c-.018.523-.018.8656-.018.9918,0,.1082,0,.4689.018.9918,0,.0721,0,.2525.018.4689h-1.2623l-.018-.2705c0-.4508-.0721-.5951-.4869-.9377-.4329-.3787-1.064-.5951-1.6951-.5951-.9017,0-1.533.4508-1.533,1.082,0,.6672.451.9377,2.2181,1.3164,1.2805.2705,1.8035.4508,2.2902.7935.559.3787.9018,1.0459.9018,1.7673,0,1.4968-1.3164,2.5968-3.1197,2.5968-.9558,0-1.4246-.1803-2.5427-.9558l.018.8476h-1.2263c.018-.5771.018-.8295.018-1.4787m7.7002-10.6035c.8836.018.9911.018,1.2623.018h.6124c.2344,0,.2891,0,.9377-.018v10.856l1.3352-.018v1.2263c-.8663-.018-.9745-.018-1.2984-.018h-1.5869c-.2712,0-.3614,0-1.2623.018v-1.2263l1.3164.018v-9.6658l-1.3164.0361v-1.2263Zm4.697,7.8625c0-2.5427,1.7492-4.4722,4.0575-4.4722,1.4245,0,2.687.7754,3.3542,2.0558.3967.7754.559,1.5689.559,2.7411h-6.456c.0541.7935.2526,1.3525.6854,1.8574.4327.5049,1.2984.8836,2.0017.8836.5049,0,1.2983-.2885,1.7491-.6312.2706-.2164.469-.4148.8116-.9017l1.2984.5049c-.9559,1.4607-2.3804,2.2902-3.9312,2.2902-2.3984,0-4.1296-1.8033-4.1296-4.328m8.7585-4.364c.9198.018,1.01.018,1.2805.018h.4868c.2346,0,.3067,0,.9918-.018l-.018,1.6951c.5411-1.1722,1.7312-1.8394,3.2461-1.8214v1.5509c-1.064,0-1.7312.2344-2.2542.7754-.5771.6312-.9198,1.7132-.9198,2.9935v2.164l1.7854-.0361v1.2443c-.9017-.018-1.0099-.018-1.2805-.018h-2.0376c-.2705,0-.3426,0-1.2805.018v-1.2443l1.3166.0361v-6.1493l-1.3166.0361v-1.2443Zm6.9719-.018c.6313.0361.9379.0361,1.2985.0361h.541c.2344,0,.2885,0,.9731-.018l-.018.9918c1.1186-.8476,1.7137-1.1,2.6876-1.1.7032,0,1.3517.2344,1.7311.6131.4329.4328.5945,1.0099.5945,2.182v4.6706l1.3343-.018v1.2263h-.5402c-.2705-.018-.4515-.018-.523-.018h-.559c-.073,0-.2887,0-.5951.018h-.614v-5.7165c0-1.1181-.3779-1.5689-1.2983-1.5689-.7206,0-1.4969.4148-2.2001,1.1722v4.905l1.3352-.018v1.2263c-.9738-.018-1.064-.018-1.3166-.018h-1.5147c-.2351,0-.3246,0-1.3166.018v-1.2263l1.3166.018v-6.1674l-1.3166.0361v-1.2443Zm9.8711,7.3395l1.4608.0361v-6.0592l-1.4067.0361v-1.3164l1.4067.0361v-1.1902c0-1.6591.8114-2.5607,2.2902-2.5607.7033,0,1.3163.2525,1.6771.6853.1982.2525.3245.4689.559,1.0279l-1.2984.523c-.1985-.7574-.4328-1.0099-.9377-1.0099-.559,0-.7936.3967-.7936,1.3164v1.2082l1.4969-.0361v1.3164l-1.4969-.0361v6.0592l1.4969-.0361v1.2443c-.8836-.018-.992-.018-1.2623-.018h-1.8935c-.2885,0-.3607,0-1.2985.018v-1.2443Zm5.5363-1.3525c0-1.5869,1.2977-2.7411,3.1009-2.7411.8123,0,1.2812.1262,2.4353.6312v-.9377c0-.6853-.1262-1.082-.4508-1.3525-.3608-.3066-.9018-.4689-1.5149-.4689-1.0097,0-1.6951.3967-2.0737,1.1722l-1.2271-.3607c.4335-1.2443,1.8222-2.0197,3.5894-2.0197,1.0459,0,1.9294.3066,2.5065.8476.523.4869.6665.9918.6665,2.2542v4.364l1.3166-.018v1.2263c-.8831-.018-.9731-.018-1.2625-.018h-.9369c-.1623,0-.3073,0-.6131.018v-.9558c-.8116.7033-1.7132,1.064-2.6516,1.064-1.6585,0-2.8846-1.1541-2.8846-2.705m9.1137-9.4674c.9017.018,1.0097.018,1.2804.018h.5771c.2343,0,.3064,0,.9558-.018v4.6345c.8476-.8476,1.7673-1.2443,2.8673-1.2443,2.2361,0,3.8049,1.8033,3.8049,4.364,0,2.5247-1.641,4.4181-3.8409,4.4181-1.082,0-2.0378-.4328-2.8494-1.3164l.0182,1.2082c-.7574-.018-.7935-.018-.9377-.018h-.5771c-.2706,0-.3428,0-1.2984.018v-1.2263l1.3164.018v-9.6658l-1.3164.0361v-1.2263Zm10.2622,3.4984c.9198.018,1.01.018,1.2804.018h.4869c.2345,0,.3066,0,.9919-.018l-.018,1.6951c.541-1.1722,1.7311-1.8394,3.246-1.8214v1.5509c-1.064,0-1.7312.2344-2.2542.7754-.5771.6312-.9198,1.7132-.9198,2.9935v2.164l1.7853-.0361v1.2443c-.9016-.018-1.0098-.018-1.2803-.018h-2.0378c-.2704,0-.3426,0-1.2804.018v-1.2443l1.3166.0361v-6.1493l-1.3166.0361v-1.2443Zm9.082-1.8033c-.559,0-1.0099-.4508-1.0099-1.0099s.4689-1.0099,1.028-1.0099c.523,0,.9918.4689.9918,1.0099s-.4689,1.0099-1.0099,1.0099m-2.11,1.7853c.5951.0361.8837.0361,1.2804.0361h.7213c.0902,0,.2524,0,.4869-.018h.3245v7.3576l1.3345-.018v1.2263c-.9377-.018-1.0459-.018-1.3165-.018h-1.5328c-.2885,0-.3607,0-1.2985.018v-1.2263l1.3165.018v-6.1674l-1.3165.0361v-1.2443Zm4.9987-3.4804c.9739.018,1.064.018,1.2985.018h.5049c.1804,0,.2525,0,1.0099-.018v7.5379l3.1739-2.9034-1.3886.0361v-1.1722c.8476.018,1.0099.018,1.4427.018h1.641c.0361,0,.2524,0,.559-.018h.523v1.1722l-1.082-.018-3.1018,2.8853,3.6247,3.3181,1.2623-.0361.018,1.2443c-.7032-.018-.7754-.018-1.1181-.018-.2704,0-.5049,0-.9377.018l-4.6165-4.364v3.1558l1.3345-.018v1.2263c-.9558-.018-1.0459-.018-1.2985-.018h-1.5508c-.2345,0-.3246,0-1.2985.018v-1.2263l1.3165.018v-9.6658l-1.3165.0361v-1.2263Zm24.8429,20.8936V.3634h-158.3283l-22.5506,78.6429h180.8789Z"/>
    <path class="cls-1" d="m107.856,67.7962h-7.8722v1.5273h3.0858v9.6832h1.7007v-9.6832h3.0858v-1.5273Zm-13.2142,1.5273c.8032,0,1.4329.2365,1.9053.756.5826.645.5986,1.7.5986,3.2432s-.016,2.7549-.5986,3.4007c-.4723.5195-1.1021.756-1.9053.756h-2.062v-8.1559h2.062Zm.1734-1.5273h-3.9361v11.2104h3.9361c1.1652,0,2.1883-.3468,2.8971-1.0549,1.2124-1.2124,1.1333-3.0074,1.1333-4.629s.0791-3.2592-1.1333-4.4715c-.7088-.7082-1.7319-1.0549-2.8971-1.0549m-14.4516-55.5174h9.4342l9.7601,34.3838,1.6382-5.7138-8.9486-31.6719h-12.7446l.8607,3.0018Zm2.5628,63.0275l1.7478-4.9751,1.7007,4.9751h-3.4485Zm1.0237-7.5101l-4.1095,11.2104h1.811l.7713-2.2514h4.4244l.7713,2.2514h1.811l-4.1095-11.2104h-1.3698Zm-3.0934,0h-7.8722v1.5273h3.0858v9.6832h1.7v-9.6832h3.0865v-1.5273Zm-15.4392,8.7066l-1.1333,1.1181c1.0702,1.0862,2.2826,1.4801,3.9673,1.4801,2.3464,0,4.0304-1.2283,4.0304-3.2904,0-.9606-.2989-1.7638-.9128-2.2992-.4723-.4252-1.0549-.6769-2.0939-.8344l-1.2755-.1887c-.5195-.0791-.9759-.2677-1.2596-.5195-.2989-.2677-.4252-.6298-.4252-1.039,0-.9925.7241-1.7478,2.0468-1.7478.9447,0,1.7478.2046,2.4407.8656l1.0862-1.0702c-.9606-.8975-1.9996-1.2755-3.4797-1.2755-2.3298,0-3.7468,1.3386-3.7468,3.2904,0,.9135.2677,1.6216.8184,2.1418.4883.4564,1.2124.7713,2.1258.8968l1.322.1893c.6617.0943.9447.2046,1.2283.4723.2989.2677.4411.6769.4411,1.1652,0,1.0862-.8503,1.7159-2.3145,1.7159-1.1493,0-2.0468-.2518-2.8659-1.0709m.611-23.568l-3.3493-.6513,3.153,10.994h12.9798l8.0074-27.9259-1.5814-5.5147-8.717,30.4006h-8.3986l-2.0939-7.3028Zm-15.2041,10.3428V12.2795h10.1763l9.7948,34.1577,1.5814-5.5154-9.0742-31.6449-15.4808.0007v51.1166h-6.3637v-12.2355l-3.0039-.584v15.7028h12.3701Zm3.6524,4.5187h-1.7v11.2104h1.7v-7.4949l2.6453,5.4634h1.2596l2.5822-5.4634v7.4949h1.7v-11.2104h-1.7l-3.212,6.9747-3.2751-6.9747Zm-7.3728,1.5273c1.134,0,1.9053.6617,1.9053,1.7638s-.7713,1.7471-1.9053,1.7471h-2.5191v-3.5109h2.5191Zm.1262-1.5273h-4.3453v11.2104h1.7v-4.7233h2.1258l2.3617,4.7233h1.9837l-2.5822-4.9598c1.2596-.3461,2.2354-1.3698,2.2354-2.9755,0-1.9053-1.3539-3.2751-3.479-3.2751m-12.298,7.5101l1.7478-4.9751,1.7,4.9751h-3.4478Zm1.023-7.5101l-4.1088,11.2104h1.8103l.772-2.2514h4.4237l.772,2.2514h1.8103l-4.1095-11.2104h-1.3698Zm-9.0159,1.5273c.8025,0,1.4323.2365,1.9046.756.5826.645.5986,1.7.5986,3.2432s-.016,2.7549-.5986,3.4007c-.4723.5195-1.1021.756-1.9046.756h-2.0627v-8.1559h2.0627Zm.1727-1.5273h-3.9361v11.2104h3.9361c1.1652,0,2.189-.3468,2.8971-1.0549,1.2124-1.2124,1.134-3.0074,1.134-4.629s.0784-3.2592-1.134-4.4715c-.7082-.7082-1.7319-1.0549-2.8971-1.0549m-16.0274,0h-1.7v7.4318c0,2.3145,1.7319,3.873,4.0145,3.873s4.0304-1.5585,4.0304-3.873v-7.4318h-1.7v7.3527c0,1.4961-.9287,2.4248-2.3304,2.4248s-2.3145-.9287-2.3145-2.4248v-7.3527Zm-3.2273,0H-.0146v1.5273h3.0858v9.6832h1.7007v-9.6832h3.0858v-1.5273ZM105.1115,12.3177l3.4277-11.954H-.0146v11.7979l25.3631-.0083c8.8793-.0021,13.3342,6.9629,13.3439,13.9279.0035,6.9581-4.4376,13.9154-13.3439,13.9154-4.1192.0007-15.9955,0-15.9955,0l.0014,20.3963H2.9879v-20.3963H-.0146v23.2802h12.3701v-20.3595h12.9929c22.0248,0,21.9-33.6403,0-33.6403H2.9879V3.4051h101.516l-2.5559,8.9126h3.1634ZM25.5836,31.0341H9.3536v2.8874h16.1932c8.83,0,9.5597-15.7305-.2899-15.7312l-15.9032.0007v2.8825h15.9005c5.6943-.0007,5.1096,9.9606.3295,9.9606M125.8144.3637h-12.6129l-.8718,3.0407h9.4501l-16.2965,56.8331h-8.3986l-.3842-1.3407-3.3493-.6513,1.4427,5.032h12.9805L125.8144.3637Z"/>
  </g>
</svg>